<svg width="40" height="40" viewBox="0 0 40 40" fill="none" xmlns="http://www.w3.org/2000/svg">
<path d="M0 6C0 2.68629 2.68629 0 6 0H34C37.3137 0 40 2.68629 40 6V34C40 37.3137 37.3137 40 34 40H6C2.68629 40 0 37.3137 0 34V6Z" fill="#212121" fill-opacity="0.5"/>
<path fill-rule="evenodd" clip-rule="evenodd" d="M16.1875 13C14.9794 13 14 13.9794 14 15.1875V24.8125C14 26.0206 14.9794 27 16.1875 27C17.3956 27 18.375 26.0206 18.375 24.8125V15.1875C18.375 13.9794 17.3956 13 16.1875 13ZM24.0625 13C22.8544 13 21.875 13.9794 21.875 15.1875V24.8125C21.875 26.0206 22.8544 27 24.0625 27C25.2706 27 26.25 26.0206 26.25 24.8125V15.1875C26.25 13.9794 25.2706 13 24.0625 13Z" fill="white"/>
</svg>
